<svg xmlns="http://www.w3.org/2000/svg" width="71" height="73" fill="none"><path stroke="#53C7D8" d="M17.364 66.455v-3.273c0-1.861-4.5-4.889-8.182-4.889C5.5 58.293 1 61.321 1 63.182V73m8.183-14.789c2.945 0 4.909-2.495 4.909-5.584v-1.861c0-3.089-1.964-5.584-4.91-5.584-2.945 0-4.909 2.495-4.909 5.584v1.861c0 3.089 1.964 5.584 4.91 5.584ZM37 53.363V50.09c0-1.86-4.5-4.888-8.181-4.888-3.682 0-8.182 3.027-8.182 4.889v6.545m8.181-11.516c2.946 0 4.91-2.495 4.91-5.584v-1.86c0-3.09-1.964-5.585-4.91-5.585-2.945 0-4.909 2.495-4.909 5.584v1.861c0 3.09 1.964 5.585 4.91 5.585Zm18-14.665v-4.91c0-1.86-4.5-4.888-8.182-4.888-3.682 0-8.182 3.027-8.182 4.889v1.636m8.183-6.607c2.945 0 4.909-2.496 4.909-5.584v-1.862c0-3.088-1.964-5.584-4.91-5.584-2.945 0-4.909 2.496-4.909 5.584v1.862c0 3.088 1.964 5.584 4.91 5.584Z"/><path stroke="#323232" d="M59.008 61.77c3.99-4.806 5.81-10.697 5.81-18.225V15.727h4.909L60.522 1l-8.795 14.727h4.909v27.818c0 16.875-14.114 27.819-29.455 27.819H12.454"/><path stroke="#323232" d="M36.202 61.177c8.57-4.213 9.266-12.559 9.512-15.627.204-2.455.265-3.252.265-3.252"/></svg>