<svg xmlns="http://www.w3.org/2000/svg" width="67" height="62"><g fill="none" fill-rule="evenodd"><path stroke="#323232" d="M65.748 43.688 43.181 27.303v27.81c0 .843.74 1.132 1.413.48l6.322-6.103 6.096 10.74c.514.838 1.723 1.02 2.693.409l2.548-1.602c.953-.599 1.33-1.766.853-2.602l-5.852-10.162h7.662c.97 0 1.569-2.096.832-2.585Z"/><path stroke="#53C7D8" d="M22.237 30.455v1.636c0 1.806 1.5 3.273 3.308 3.273h3.273c1.807 0 3.237-1.467 3.237-3.273v-.915a3.258 3.258 0 0 0-2.219-3.104l-5.353-1.78a3.28 3.28 0 0 1-2.246-3.105v-.914c0-1.807 1.5-3.273 3.308-3.273h3.273c1.807 0 3.237 1.466 3.237 3.273v1.636M27.146 19v-4.909m0 21.273v4.909"/><path stroke="#323232" d="M36.965 51.475a26.095 26.095 0 0 1-9.784 1.888C12.722 53.363.999 41.642.999 27.181 1 12.722 12.722 1 27.181 1c13.91 0 25.287 10.847 26.133 24.542"/></g></svg>