<svg xmlns="http://www.w3.org/2000/svg" width="81" height="74" fill="none"><path stroke="#323232" d="M58.951 73c11.638 0 21.073-9.435 21.073-21.073 0-11.639-9.435-21.073-21.073-21.073s-21.073 9.434-21.073 21.073C37.878 63.565 47.313 73 58.95 73Z"/><path stroke="#53C7D8" d="M39.634 18.56c-4.017 0-7.025-3.358-7.025-7.528V8.529C32.61 4.36 35.617 1 39.634 1s7.024 3.359 7.024 7.53v2.502c0 4.17-3.007 7.529-7.024 7.529ZM27.342 29.098v-3.513c0-4.807 7.924-7.024 12.292-7.024 3.732 0 10.01 1.58 11.81 5.005m-38.15 10.8c-4.017 0-7.024-3.359-7.024-7.53v-2.502c0-4.17 3.007-7.53 7.024-7.53 4.017 0 7.024 3.36 7.024 7.53v2.503c0 4.17-3.007 7.529-7.024 7.529Zm11.391 4.39c-2.195-2.985-7.924-4.39-11.392-4.39C8.924 34.366 1 36.583 1 41.39v3.512m21.074 17.561c-4.017 0-7.024-3.358-7.024-7.53v-2.502c0-4.148 3.007-7.529 7.024-7.529 4.017 0 7.024 3.359 7.024 7.53v2.502c0 4.17-3.007 7.529-7.024 7.529Z"/><path stroke="#53C7D8" d="M9.781 73v-3.513c0-4.807 7.925-7.024 12.293-7.024 4.368 0 12.293 2.173 12.293 6.98V73"/><path stroke="#323232" d="M58.95 41.39v21.073m10.536-10.536H48.413"/></svg>